<svg width="18" height="18" viewBox="0 0 18 18" fill="none" xmlns="http://www.w3.org/2000/svg">
<g clip-path="url(#clip0_2233_16470)">
<path d="M18.0004 8.98611C17.9988 8.37557 17.8107 7.78009 17.4612 7.27944C17.1118 6.77879 16.6177 6.39688 16.0452 6.18486L16.0167 6.11661C15.2726 4.29668 13.8482 2.83864 12.0462 2.05236L11.7994 1.94436C11.587 1.37354 11.2051 0.88135 10.7049 0.533808C10.2047 0.186266 9.61022 0 9.00116 0C8.3921 0 7.7976 0.186266 7.29743 0.533808C6.79726 0.88135 6.41534 1.37354 6.20291 1.94436L5.88941 2.08536C4.10332 2.89659 2.69756 4.36357 1.96316 6.18261C1.38967 6.39155 0.894011 6.77128 0.542996 7.27062C0.19198 7.76996 0.00247602 8.3649 2.4097e-05 8.97527C-0.00242782 9.58563 0.18229 10.1821 0.529283 10.6842C0.876275 11.1864 1.36886 11.5701 1.94066 11.7836L2.03666 12.0086C2.78917 13.7553 4.17119 15.155 5.90816 15.9296L6.20291 16.0616C6.41594 16.6316 6.79801 17.1229 7.29796 17.4698C7.79792 17.8167 8.3919 18.0026 9.00041 18.0026C9.60891 18.0026 10.2029 17.8167 10.7029 17.4698C11.2028 17.1229 11.5849 16.6316 11.7979 16.0616L12.0732 15.9394C13.8901 15.1269 15.3186 13.6379 16.0549 11.7889C16.6255 11.5746 17.1173 11.1917 17.4649 10.691C17.8124 10.1903 17.9992 9.5956 18.0004 8.98611ZM9.00041 1.49886C9.29708 1.49886 9.58709 1.58683 9.83376 1.75165C10.0804 1.91647 10.2727 2.15074 10.3862 2.42483C10.4998 2.69892 10.5295 3.00052 10.4716 3.29149C10.4137 3.58246 10.2708 3.84974 10.0611 4.05952C9.85129 4.2693 9.58401 4.41216 9.29304 4.47004C9.00207 4.52791 8.70047 4.49821 8.42638 4.38468C8.15229 4.27114 7.91803 4.07889 7.7532 3.83221C7.58838 3.58554 7.50041 3.29553 7.50041 2.99886C7.50041 2.60103 7.65844 2.2195 7.93975 1.9382C8.22105 1.65689 8.60258 1.49886 9.00041 1.49886ZM2.99141 7.48761L3.05291 7.51086L3.06041 7.49211C3.43623 7.52573 3.78366 7.70613 4.02737 7.99419C4.27108 8.28226 4.39144 8.65477 4.36234 9.03097C4.33325 9.40717 4.15705 9.75675 3.87195 10.0039C3.58685 10.2511 3.21581 10.3759 2.83929 10.3514C2.46276 10.3268 2.11109 10.1548 1.8605 9.87273C1.60992 9.59063 1.48061 9.22113 1.50063 8.84434C1.52064 8.46754 1.68836 8.11382 1.96742 7.85985C2.24648 7.60588 2.6144 7.47214 2.99141 7.48761ZM9.00041 16.4989C8.70374 16.4989 8.41373 16.4109 8.16705 16.2461C7.92038 16.0812 7.72812 15.847 7.61459 15.5729C7.50106 15.2988 7.47135 14.9972 7.52923 14.7062C7.58711 14.4153 7.72997 14.148 7.93975 13.9382C8.14953 13.7284 8.4168 13.5856 8.70777 13.5277C8.99874 13.4698 9.30034 13.4995 9.57443 13.613C9.84852 13.7266 10.0828 13.9188 10.2476 14.1655C10.4124 14.4122 10.5004 14.7022 10.5004 14.9989C10.5004 15.3967 10.3424 15.7782 10.0611 16.0595C9.77976 16.3408 9.39823 16.4989 9.00041 16.4989ZM11.9202 14.3344C11.7709 13.6714 11.4004 13.0789 10.8697 12.6544C10.339 12.2299 9.67962 11.9987 9.00003 11.9987C8.32044 11.9987 7.66108 12.2299 7.13037 12.6544C6.59967 13.0789 6.22921 13.6714 6.07991 14.3344C5.05585 13.7755 4.21453 12.9334 3.65666 11.9089C4.31757 11.7595 4.90826 11.3904 5.33214 10.8618C5.75603 10.3332 5.98803 9.67639 5.9902 8.99883C5.99238 8.32126 5.76461 7.663 5.34413 7.13169C4.92365 6.60037 4.33534 6.22743 3.67541 6.07386C4.23534 5.06371 5.06871 4.23189 6.07991 3.67386C6.22983 4.3361 6.60046 4.9277 7.13096 5.35152C7.66145 5.77534 8.32028 6.0062 8.99928 6.0062C9.67829 6.0062 10.3371 5.77534 10.8676 5.35152C11.3981 4.9277 11.7687 4.3361 11.9187 3.67386C12.9291 4.23127 13.7629 5.06095 14.3254 6.06861C13.6634 6.2198 13.0726 6.59157 12.6498 7.12288C12.227 7.65419 11.9974 8.31347 11.9987 8.99248C12 9.67148 12.2321 10.3299 12.657 10.8595C13.0818 11.3892 13.6741 11.7587 14.3367 11.9074C13.777 12.9287 12.939 13.7703 11.9202 14.3344ZM15.0004 10.4861C14.7037 10.4861 14.4137 10.3981 14.1671 10.2333C13.9204 10.0685 13.7281 9.83422 13.6146 9.56013C13.5011 9.28604 13.4714 8.98444 13.5292 8.69347C13.5871 8.4025 13.73 8.13523 13.9397 7.92545C14.1495 7.71567 14.4168 7.57281 14.7078 7.51493C14.9987 7.45705 15.3003 7.48676 15.5744 7.60029C15.8485 7.71382 16.0828 7.90608 16.2476 8.15275C16.4124 8.39943 16.5004 8.68944 16.5004 8.98611C16.5004 9.38393 16.3424 9.76546 16.0611 10.0468C15.7798 10.3281 15.3982 10.4861 15.0004 10.4861Z" fill="#D0D1D3"/>
</g>
<defs>
<clipPath id="clip0_2233_16470">
<rect width="18" height="18" fill="white"/>
</clipPath>
</defs>
</svg>
