<svg width="56" height="56" viewBox="0 0 56 56" fill="none" xmlns="http://www.w3.org/2000/svg">
<g id="arrow-small-right 1">
<path id="Vector" d="M34.7345 20.7902C34.0969 20.2055 33.2546 19.8957 32.3901 19.9278L22.4083 20.2563C21.9742 20.2724 21.5641 20.4596 21.2676 20.7771C20.971 21.0945 20.8122 21.5164 20.8257 21.9506C20.8322 22.1675 20.8816 22.3811 20.971 22.5788C21.0605 22.7766 21.1882 22.9547 21.3468 23.1029C21.5055 23.2511 21.6918 23.3664 21.8952 23.4421C22.0987 23.5179 22.315 23.5526 22.5319 23.5444L30.1658 23.2725L18.942 35.2884C18.6443 35.6071 18.4854 36.031 18.5003 36.4668C18.5151 36.9026 18.7025 37.3147 19.0212 37.6124C19.3399 37.91 19.7638 38.0689 20.1996 38.0541C20.6354 38.0392 21.0475 37.8518 21.3452 37.5332L32.5689 25.5173L32.8295 33.1631C32.8429 33.5993 33.0289 34.0122 33.3467 34.3112C33.6645 34.6102 34.088 34.7706 34.5242 34.7573C34.9603 34.744 35.3733 34.558 35.6722 34.2402C35.9712 33.9224 36.1317 33.4988 36.1183 33.0627L35.7665 23.0817C35.7395 22.2113 35.3683 21.3872 34.7345 20.7902Z" fill="#D2D3D7"/>
</g>
</svg>
