<svg width="18" height="18" viewBox="0 0 18 18" fill="none" xmlns="http://www.w3.org/2000/svg">
<path d="M11.75 13.5H8.75C8.336 13.5 8 13.1648 8 12.75C8 12.3352 8.336 12 8.75 12H11.75C12.164 12 12.5 12.3352 12.5 12.75C12.5 13.1648 12.164 13.5 11.75 13.5ZM15.5 14.25V5.25C15.5 3.18225 13.8177 1.5 11.75 1.5H11.6217C11.312 0.627 10.478 0 9.5 0H8C7.022 0 6.188 0.627 5.87825 1.5H5.75C3.68225 1.5 2 3.18225 2 5.25V14.25C2 16.3177 3.68225 18 5.75 18H11.75C13.8177 18 15.5 16.3177 15.5 14.25ZM6.5 3C6.914 3 7.25 2.66475 7.25 2.25C7.25 1.83525 7.58675 1.5 8 1.5H9.5C9.91325 1.5 10.25 1.836 10.25 2.25C10.25 2.664 10.586 3 11 3H11.75C12.9905 3 14 4.0095 14 5.25V14.25C14 15.4905 12.9905 16.5 11.75 16.5H5.75C4.5095 16.5 3.5 15.4905 3.5 14.25V5.25C3.5 4.0095 4.5095 3 5.75 3H6.5ZM5.75 12C5.336 12 5 12.336 5 12.75C5 13.164 5.336 13.5 5.75 13.5C6.164 13.5 6.5 13.164 6.5 12.75C6.5 12.336 6.164 12 5.75 12ZM12.5 9.75C12.5 9.33525 12.164 9 11.75 9H8.75C8.336 9 8 9.33525 8 9.75C8 10.1648 8.336 10.5 8.75 10.5H11.75C12.164 10.5 12.5 10.1648 12.5 9.75ZM5.75 9C5.336 9 5 9.336 5 9.75C5 10.164 5.336 10.5 5.75 10.5C6.164 10.5 6.5 10.164 6.5 9.75C6.5 9.336 6.164 9 5.75 9ZM12.5 6.75C12.5 6.33525 12.164 6 11.75 6H8.75C8.336 6 8 6.33525 8 6.75C8 7.16475 8.336 7.5 8.75 7.5H11.75C12.164 7.5 12.5 7.16475 12.5 6.75ZM5.75 6C5.336 6 5 6.336 5 6.75C5 7.164 5.336 7.5 5.75 7.5C6.164 7.5 6.5 7.164 6.5 6.75C6.5 6.336 6.164 6 5.75 6Z" fill="#D0D1D3"/>
</svg>
