<svg width="24" height="24" viewBox="0 0 24 24" fill="none" xmlns="http://www.w3.org/2000/svg">
<g id="copy-alt" clip-path="url(#clip0_195_902)">
<path id="Vector" d="M13 20C14.3256 19.9984 15.5964 19.4711 16.5338 18.5338C17.4711 17.5964 17.9984 16.3256 18 15V6.24299C18.0016 5.71735 17.8988 5.19662 17.6976 4.71101C17.4964 4.22539 17.2008 3.78453 16.828 3.41399L14.586 1.17199C14.2155 0.799161 13.7746 0.50359 13.289 0.302407C12.8034 0.101224 12.2826 -0.00156847 11.757 -1.3128e-05H7C5.67441 0.00157473 4.40356 0.528869 3.46622 1.46621C2.52888 2.40354 2.00159 3.67439 2 4.99999V15C2.00159 16.3256 2.52888 17.5964 3.46622 18.5338C4.40356 19.4711 5.67441 19.9984 7 20H13ZM4 15V4.99999C4 4.20434 4.31607 3.44128 4.87868 2.87867C5.44129 2.31606 6.20435 1.99999 7 1.99999C7 1.99999 11.919 2.01399 12 2.02399V3.99999C12 4.53042 12.2107 5.03913 12.5858 5.4142C12.9609 5.78927 13.4696 5.99999 14 5.99999H15.976C15.986 6.08099 16 15 16 15C16 15.7956 15.6839 16.5587 15.1213 17.1213C14.5587 17.6839 13.7956 18 13 18H7C6.20435 18 5.44129 17.6839 4.87868 17.1213C4.31607 16.5587 4 15.7956 4 15ZM22 7.99999V19C21.9984 20.3256 21.4711 21.5964 20.5338 22.5338C19.5964 23.4711 18.3256 23.9984 17 24H8C7.73478 24 7.48043 23.8946 7.29289 23.7071C7.10536 23.5196 7 23.2652 7 23C7 22.7348 7.10536 22.4804 7.29289 22.2929C7.48043 22.1053 7.73478 22 8 22H17C17.7956 22 18.5587 21.6839 19.1213 21.1213C19.6839 20.5587 20 19.7956 20 19V7.99999C20 7.73477 20.1054 7.48042 20.2929 7.29288C20.4804 7.10534 20.7348 6.99999 21 6.99999C21.2652 6.99999 21.5196 7.10534 21.7071 7.29288C21.8946 7.48042 22 7.73477 22 7.99999Z" fill="#D1D1D5"/>
</g>
<defs>
<clipPath id="clip0_195_902">
<rect width="24" height="24" fill="white"/>
</clipPath>
</defs>
</svg>
