<svg width="18" height="18" viewBox="0 0 18 18" fill="none" xmlns="http://www.w3.org/2000/svg">
<g clip-path="url(#clip0_2233_16471)">
<path d="M0.24082 0.238399C0.0469038 0.43079 -0.05 0.670048 -0.05 0.95276V8.57642C-0.05 8.859 0.0460991 9.09825 0.238528 9.29074C0.431024 9.48332 0.671284 9.57939 0.955776 9.57939H6.71635C7.00085 9.57939 7.24176 9.48337 7.43565 9.29099C7.62955 9.0986 7.72644 8.85934 7.72644 8.57663V0.952971C7.72644 0.670385 7.63035 0.431138 7.43794 0.238651C7.24544 0.0460623 7.00517 -0.05 6.72066 -0.05H0.960117C0.675617 -0.05 0.434711 0.0460139 0.24082 0.238399ZM0.24082 0.238399L0.276035 0.273893L0.24082 0.238399ZM10.2736 0.96205V4.86147C10.2736 5.14992 10.3694 5.39236 10.5621 5.58501C10.7546 5.77751 10.9948 5.87352 11.2793 5.87352H17.0399C17.3244 5.87352 17.5653 5.77752 17.7592 5.58515C17.9533 5.39252 18.05 5.15004 18.05 4.86147V0.96205C18.05 0.673615 17.9541 0.431189 17.7615 0.23854C17.569 0.0460243 17.3287 -0.05 17.0442 -0.05H11.2836C10.9991 -0.05 10.7582 0.0460156 10.5644 0.2384C10.3702 0.431026 10.2736 0.673495 10.2736 0.96205ZM10.2736 9.42337V17.047C10.2736 17.3296 10.3696 17.5689 10.5621 17.7613C10.7546 17.9539 10.9948 18.05 11.2793 18.05H17.0399C17.3244 18.05 17.5653 17.954 17.7592 17.7616C17.9531 17.5692 18.05 17.33 18.05 17.0472V9.42358C18.05 9.141 17.9539 8.90175 17.7615 8.70926C17.569 8.51667 17.3287 8.42061 17.0442 8.42061H11.2836C10.9992 8.42061 10.7582 8.51663 10.5644 8.70901C10.3705 8.9014 10.2736 9.14066 10.2736 9.42337ZM-0.05 13.1385V17.0379C-0.05 17.3264 0.0458667 17.5688 0.238535 17.7615C0.431031 17.954 0.67129 18.05 0.955776 18.05H6.71635C7.00085 18.05 7.24176 17.954 7.43565 17.7616C7.62978 17.569 7.72644 17.3265 7.72644 17.0379V13.1385C7.72644 12.8501 7.63058 12.6076 7.43793 12.415C7.24543 12.2225 7.00516 12.1265 6.72066 12.1265H0.960117C0.675619 12.1265 0.434712 12.2225 0.24082 12.4149C0.0466674 12.6075 -0.05 12.85 -0.05 13.1385ZM6.03825 1.63821V7.89117H1.63821V1.63821H6.03825ZM16.3618 10.1088V16.3618H11.9617V10.1088H16.3618ZM16.3618 1.63821V4.18531H11.9617V1.63821H16.3618ZM6.03825 13.8147V16.3618H1.63821V13.8147H6.03825Z" fill="#D0D1D3" stroke="#D0D1D3" stroke-width="0.1"/>
</g>
<defs>
<clipPath id="clip0_2233_16471">
<rect width="18" height="18" fill="white"/>
</clipPath>
</defs>
</svg>
