<svg width="18" height="18" viewBox="0 0 18 18" fill="none" xmlns="http://www.w3.org/2000/svg">
<g clip-path="url(#clip0_2233_16469)">
<path d="M17.6198 7.26298C17.2545 6.77248 16.6943 6.49048 16.0823 6.49048H15.75V5.00023C15.75 2.93248 14.0677 1.25023 12 1.25023H8.208C8.0925 1.25023 7.9755 1.22248 7.87275 1.17148L5.5065 -0.0120231C5.196 -0.167273 4.848 -0.249023 4.5 -0.249023H3C1.3455 -0.249773 0 1.09573 0 2.75023V12.5002C0 14.568 1.68225 16.2502 3.75 16.2502H13.1685C14.838 16.2502 16.281 15.1762 16.77 13.545L17.919 8.95798C18.0945 8.37148 17.985 7.75423 17.6198 7.26298ZM1.5 12.5002V2.75023C1.5 1.92298 2.17275 1.25023 3 1.25023H4.5C4.6155 1.25023 4.7325 1.27798 4.83525 1.32898L7.2015 2.51248C7.512 2.66773 7.86 2.74948 8.208 2.74948H12C13.2405 2.74948 14.25 3.75898 14.25 4.99948V6.48973H6.46125C5.18625 6.48973 4.04775 7.29898 3.6195 8.52973L1.977 13.8832C1.6785 13.5015 1.5 13.0215 1.5 12.5002ZM16.473 8.56048L15.324 13.1467C15.036 14.106 14.1698 14.7502 13.1685 14.7502H3.75C3.594 14.7502 3.44175 14.7345 3.29475 14.7037L5.04525 8.99698C5.2545 8.39473 5.8245 7.99048 6.462 7.99048H16.083C16.2645 7.99048 16.3703 8.09548 16.4167 8.15848C16.4632 8.22148 16.5338 8.35273 16.473 8.56048Z" fill="#D0D1D3"/>
</g>
<defs>
<clipPath id="clip0_2233_16469">
<rect width="18" height="18" fill="white"/>
</clipPath>
</defs>
</svg>
