<svg width="24" height="24" viewBox="0 0 24 24" fill="none" xmlns="http://www.w3.org/2000/svg">
<g id="signal-stream-slash 1" clip-path="url(#clip0_241_1742)">
<path id="Vector" d="M23.71 23.71C23.51 23.91 23.26 24 23 24C22.74 24 22.49 23.9 22.29 23.71L0.289998 1.71C-0.100002 1.32 -0.100002 0.679998 0.289998 0.289998C0.679998 -0.100002 1.32 -0.100002 1.71 0.289998L11.48 10.07C12.15 9.89 12.89 10.07 13.41 10.59C13.93 11.11 14.11 11.85 13.93 12.52L16.17 14.76C17.45 12.82 17.24 10.17 15.53 8.47C15.14 8.08 15.14 7.45 15.53 7.06C15.92 6.67 16.55 6.67 16.94 7.06C19.43 9.55 19.65 13.46 17.6 16.2L19.74 18.34C22.95 14.42 22.73 8.6 19.07 4.94C18.68 4.55 18.68 3.92 19.07 3.53C19.46 3.14 20.09 3.14 20.48 3.53C24.92 7.97 25.15 15.05 21.16 19.76L23.7 22.3C24.09 22.69 24.09 23.32 23.7 23.71H23.71ZM2.68 8.36C2.88 7.85 2.63 7.27 2.11 7.07C1.59 6.87 1.02 7.12 0.819998 7.64C-0.910003 12.07 0.149998 17.12 3.51 20.49C3.71 20.69 3.96 20.78 4.22 20.78C4.48 20.78 4.73 20.68 4.93 20.49C5.32 20.1 5.32 19.47 4.93 19.08C2.12 16.27 1.24 12.07 2.68 8.37V8.36ZM7 12C7 11.45 6.55 11 6 11C5.45 11 5 11.45 5 12C5 13.87 5.73 15.63 7.05 16.95C7.25 17.15 7.5 17.24 7.76 17.24C8.02 17.24 8.27 17.14 8.47 16.95C8.86 16.56 8.86 15.93 8.47 15.54C7.53 14.6 7.01 13.34 7.01 12H7Z" fill="#D1D2D5"/>
</g>
<defs>
<clipPath id="clip0_241_1742">
<rect width="24" height="24" fill="white"/>
</clipPath>
</defs>
</svg>
