<svg width="20" height="20" viewBox="0 0 20 20" fill="none" xmlns="http://www.w3.org/2000/svg">
<g id="arrow_back_ios_new">
<mask id="mask0_38_284" style="mask-type:alpha" maskUnits="userSpaceOnUse" x="0" y="0" width="20" height="20">
<rect id="Bounding box" y="20" width="20" height="20" transform="rotate(-90 0 20)" fill="#D9D9D9"/>
</mask>
<g mask="url(#mask0_38_284)">
<path id="arrow_back_ios_new_2" d="M9.99998 12.4712L16.0272 6.44391C16.1789 6.29221 16.367 6.21502 16.5913 6.21235C16.8157 6.20968 17.0037 6.28421 17.1554 6.43591C17.3071 6.58761 17.383 6.77564 17.383 7C17.383 7.22436 17.3071 7.41239 17.1554 7.56408L10.9423 13.7692C10.8055 13.906 10.6576 14.0037 10.4984 14.0625C10.3392 14.1212 10.173 14.1506 9.99998 14.1506C9.82691 14.1506 9.66078 14.1212 9.50158 14.0625C9.3424 14.0037 9.19444 13.906 9.05769 13.7692L2.85256 7.56408C2.70086 7.41239 2.62366 7.22569 2.62098 7.004C2.61831 6.78232 2.69283 6.59562 2.84454 6.44391C2.99625 6.29221 3.18428 6.21635 3.40863 6.21635C3.63299 6.21635 3.82102 6.29221 3.97273 6.44391L9.99998 12.4712Z" fill="white"/>
</g>
</g>
</svg>
