<svg width="30" height="30" viewBox="0 0 30 30" fill="none" xmlns="http://www.w3.org/2000/svg">
<rect x="0.5" y="0.5" width="29" height="29" rx="5.5" stroke="#3C4257"/>
<g clip-path="url(#clip0_295_2196)">
<path d="M7 19.0001V10.3334C7 8.86275 8.196 7.66675 9.66667 7.66675H11C11.3093 7.66675 11.6187 7.73941 11.8947 7.87741L13.998 8.92941C14.09 8.97541 14.1933 8.99941 14.296 8.99941H17.6667C19.5047 8.99941 21 10.4947 21 12.3327H13.6827C11.924 12.3327 10.3473 13.5101 9.84667 15.2014L8.06467 21.4274C7.41333 20.8187 7 19.9594 7 19.0001ZM22.662 14.3447C22.3427 13.9161 21.856 13.6701 21.3233 13.6614C21.3133 13.6614 21.3053 13.6667 21.2953 13.6667H13.6827C12.5107 13.6667 11.4593 14.4514 11.1267 15.5747L9.248 22.1367C9.59 22.2554 9.95133 22.3334 10.3333 22.3334H18.7053C20.1893 22.3334 21.472 21.3787 21.9067 19.9287L22.928 15.8514C23.084 15.3301 22.9867 14.7814 22.662 14.3447Z" fill="white"/>
</g>
<defs>
<clipPath id="clip0_295_2196">
<rect width="16" height="16" fill="white" transform="translate(7 7)"/>
</clipPath>
</defs>
</svg>
