<svg width="360" height="256" viewBox="0 0 360 256" fill="none" xmlns="http://www.w3.org/2000/svg">
<rect x="0.190049" y="-6.15175" width="32.3634" height="32.3634" stroke="white" stroke-opacity="0" stroke-width="0.1"/>
<rect x="32.8558" y="-6.15175" width="32.3634" height="32.3634" stroke="white" stroke-opacity="0" stroke-width="0.1"/>
<rect x="65.5216" y="-6.15175" width="32.3634" height="32.3634" stroke="white" stroke-opacity="0.05" stroke-width="0.1"/>
<rect x="98.1874" y="-6.15175" width="32.3634" height="32.3634" stroke="white" stroke-opacity="0.1" stroke-width="0.1"/>
<rect x="130.853" y="-6.15199" width="32.3634" height="32.3634" stroke="white" stroke-opacity="0.1" stroke-width="0.1"/>
<rect x="163.519" y="-6.15175" width="32.3634" height="32.3634" stroke="white" stroke-opacity="0.1" stroke-width="0.1"/>
<rect x="196.185" y="-6.15175" width="32.3634" height="32.3634" stroke="white" stroke-opacity="0.1" stroke-width="0.1"/>
<rect x="228.851" y="-6.15175" width="32.3634" height="32.3634" stroke="white" stroke-opacity="0.1" stroke-width="0.1"/>
<rect x="261.517" y="-6.15175" width="32.3634" height="32.3634" stroke="white" stroke-opacity="0.05" stroke-width="0.1"/>
<rect x="294.182" y="-6.15199" width="32.3634" height="32.3634" stroke="white" stroke-opacity="0" stroke-width="0.1"/>
<rect x="326.848" y="-6.15175" width="32.3634" height="32.3634" stroke="white" stroke-opacity="0" stroke-width="0.1"/>
<rect x="0.190049" y="26.514" width="32.3634" height="32.3634" stroke="white" stroke-opacity="0.1" stroke-width="0.1"/>
<rect x="32.8558" y="26.514" width="32.3634" height="32.3634" stroke="white" stroke-opacity="0.1" stroke-width="0.1"/>
<rect x="65.5216" y="26.514" width="32.3634" height="32.3634" stroke="white" stroke-opacity="0.1" stroke-width="0.1"/>
<rect x="98.1874" y="26.514" width="32.3634" height="32.3634" stroke="white" stroke-opacity="0.1" stroke-width="0.1"/>
<rect x="130.853" y="26.514" width="32.3634" height="32.3634" stroke="white" stroke-opacity="0.1" stroke-width="0.1"/>
<rect x="163.519" y="26.514" width="32.3634" height="32.3634" stroke="white" stroke-opacity="0.1" stroke-width="0.1"/>
<rect x="196.185" y="26.514" width="32.3634" height="32.3634" stroke="white" stroke-opacity="0.1" stroke-width="0.1"/>
<rect x="228.851" y="26.514" width="32.3634" height="32.3634" stroke="white" stroke-opacity="0.1" stroke-width="0.1"/>
<rect x="261.517" y="26.514" width="32.3634" height="32.3634" stroke="white" stroke-opacity="0.1" stroke-width="0.1"/>
<rect x="294.182" y="26.514" width="32.3634" height="32.3634" stroke="white" stroke-opacity="0.1" stroke-width="0.1"/>
<rect x="326.848" y="26.514" width="32.3634" height="32.3634" stroke="white" stroke-opacity="0.1" stroke-width="0.1"/>
<rect x="0.190049" y="59.18" width="32.3634" height="32.3634" stroke="white" stroke-opacity="0" stroke-width="0.1"/>
<rect x="32.8558" y="59.18" width="32.3634" height="32.3634" stroke="white" stroke-opacity="0" stroke-width="0.1"/>
<rect x="65.5216" y="59.18" width="32.3634" height="32.3634" stroke="white" stroke-opacity="0.04" stroke-width="0.1"/>
<rect x="98.1874" y="59.18" width="32.3634" height="32.3634" stroke="white" stroke-opacity="0.1" stroke-width="0.1"/>
<rect x="130.853" y="59.18" width="32.3634" height="32.3634" stroke="white" stroke-opacity="0.1" stroke-width="0.1"/>
<rect x="163.519" y="59.18" width="32.3634" height="32.3634" stroke="white" stroke-opacity="0.1" stroke-width="0.1"/>
<rect x="196.185" y="59.18" width="32.3634" height="32.3634" stroke="white" stroke-opacity="0.1" stroke-width="0.1"/>
<rect x="228.851" y="59.18" width="32.3634" height="32.3634" stroke="white" stroke-opacity="0.1" stroke-width="0.1"/>
<rect x="261.517" y="59.18" width="32.3634" height="32.3634" stroke="white" stroke-opacity="0.04" stroke-width="0.1"/>
<rect x="294.182" y="59.18" width="32.3634" height="32.3634" stroke="white" stroke-opacity="0" stroke-width="0.1"/>
<rect x="326.848" y="59.18" width="32.3634" height="32.3634" stroke="white" stroke-opacity="0" stroke-width="0.1"/>
<rect x="0.190049" y="91.8458" width="32.3634" height="32.3634" stroke="white" stroke-opacity="0" stroke-width="0"/>
<rect x="32.8558" y="91.8458" width="32.3634" height="32.3634" stroke="white" stroke-opacity="0" stroke-width="0"/>
<rect x="65.5216" y="91.8458" width="32.3634" height="32.3634" stroke="white" stroke-opacity="0.04" stroke-width="0.1"/>
<rect x="98.1874" y="91.8458" width="32.3634" height="32.3634" stroke="white" stroke-opacity="0.1" stroke-width="0.1"/>
<rect x="130.853" y="91.8458" width="32.3634" height="32.3634" stroke="white" stroke-opacity="0.1" stroke-width="0.1"/>
<rect x="163.519" y="91.8458" width="32.3634" height="32.3634" stroke="white" stroke-opacity="0.1" stroke-width="0.1"/>
<rect x="196.185" y="91.8458" width="32.3634" height="32.3634" stroke="white" stroke-opacity="0.1" stroke-width="0.1"/>
<rect x="228.851" y="91.8458" width="32.3634" height="32.3634" stroke="white" stroke-opacity="0.1" stroke-width="0.1"/>
<rect x="261.517" y="91.8458" width="32.3634" height="32.3634" stroke="white" stroke-opacity="0.04" stroke-width="0.1"/>
<rect x="294.182" y="91.8458" width="32.3634" height="32.3634" stroke="white" stroke-opacity="0" stroke-width="0.1"/>
<rect x="326.848" y="91.8458" width="32.3634" height="32.3634" stroke="white" stroke-opacity="0" stroke-width="0.1"/>
<rect x="0.190049" y="124.512" width="32.3634" height="32.3634" stroke="white" stroke-opacity="0" stroke-width="0.1"/>
<rect x="32.8558" y="124.512" width="32.3634" height="32.3634" stroke="white" stroke-opacity="0" stroke-width="0"/>
<rect x="65.5216" y="124.512" width="32.3634" height="32.3634" stroke="white" stroke-opacity="0.04" stroke-width="0.1"/>
<rect x="98.1874" y="124.512" width="32.3634" height="32.3634" stroke="white" stroke-opacity="0.04" stroke-width="0.1"/>
<rect x="130.853" y="124.512" width="32.3634" height="32.3634" stroke="white" stroke-opacity="0.1" stroke-width="0.1"/>
<rect x="163.519" y="124.512" width="32.3634" height="32.3634" stroke="white" stroke-opacity="0.1" stroke-width="0.1"/>
<rect x="196.185" y="124.512" width="32.3634" height="32.3634" stroke="white" stroke-opacity="0.1" stroke-width="0.1"/>
<rect x="228.851" y="124.512" width="32.3634" height="32.3634" stroke="white" stroke-opacity="0.1" stroke-width="0.1"/>
<rect x="261.517" y="124.512" width="32.3634" height="32.3634" stroke="white" stroke-opacity="0.04" stroke-width="0.1"/>
<rect x="294.182" y="124.512" width="32.3634" height="32.3634" stroke="white" stroke-opacity="0" stroke-width="0.1"/>
<rect x="326.848" y="124.512" width="32.3634" height="32.3634" stroke="white" stroke-opacity="0" stroke-width="0.1"/>
<rect x="0.190049" y="157.177" width="32.3634" height="32.3634" stroke="white" stroke-opacity="0.1" stroke-width="0"/>
<rect x="32.8558" y="157.177" width="32.3634" height="32.3634" stroke="white" stroke-opacity="0" stroke-width="0.1"/>
<rect x="65.5216" y="157.177" width="32.3634" height="32.3634" stroke="white" stroke-opacity="0.04" stroke-width="0.1"/>
<rect x="98.1874" y="157.177" width="32.3634" height="32.3634" stroke="white" stroke-opacity="0.1" stroke-width="0.1"/>
<rect x="130.853" y="157.177" width="32.3634" height="32.3634" stroke="white" stroke-opacity="0.1" stroke-width="0.1"/>
<rect x="163.519" y="157.177" width="32.3634" height="32.3634" stroke="white" stroke-opacity="0.1" stroke-width="0.1"/>
<rect x="196.185" y="157.177" width="32.3634" height="32.3634" stroke="white" stroke-opacity="0.1" stroke-width="0.1"/>
<rect x="228.851" y="157.177" width="32.3634" height="32.3634" stroke="white" stroke-opacity="0.1" stroke-width="0.1"/>
<rect x="261.517" y="157.177" width="32.3634" height="32.3634" stroke="white" stroke-opacity="0.04" stroke-width="0.1"/>
<rect x="294.182" y="157.177" width="32.3634" height="32.3634" stroke="white" stroke-opacity="0" stroke-width="0.1"/>
<rect x="326.848" y="157.177" width="32.3634" height="32.3634" stroke="white" stroke-opacity="0" stroke-width="0.1"/>
<rect x="0.190049" y="189.843" width="32.3634" height="32.3634" stroke="white" stroke-opacity="0" stroke-width="0.1"/>
<rect x="32.8558" y="189.843" width="32.3634" height="32.3634" stroke="white" stroke-opacity="0" stroke-width="0.1"/>
<rect x="65.5216" y="189.843" width="32.3634" height="32.3634" stroke="white" stroke-opacity="0.04" stroke-width="0.1"/>
<rect x="98.1874" y="189.843" width="32.3634" height="32.3634" stroke="white" stroke-opacity="0.1" stroke-width="0.1"/>
<rect x="130.853" y="189.843" width="32.3634" height="32.3634" stroke="white" stroke-opacity="0.1" stroke-width="0.1"/>
<rect x="163.519" y="189.843" width="32.3634" height="32.3634" stroke="white" stroke-opacity="0.1" stroke-width="0.1"/>
<rect x="196.185" y="189.843" width="32.3634" height="32.3634" stroke="white" stroke-opacity="0.1" stroke-width="0.1"/>
<rect x="228.851" y="189.843" width="32.3634" height="32.3634" stroke="white" stroke-opacity="0.1" stroke-width="0.1"/>
<rect x="261.517" y="189.843" width="32.3634" height="32.3634" stroke="white" stroke-opacity="0.04" stroke-width="0.1"/>
<rect x="294.182" y="189.843" width="32.3634" height="32.3634" stroke="white" stroke-opacity="0" stroke-width="0.1"/>
<rect x="326.848" y="189.843" width="32.3634" height="32.3634" stroke="white" stroke-opacity="0" stroke-width="0"/>
<rect x="0.190049" y="222.509" width="32.3634" height="32.3634" stroke="white" stroke-opacity="0" stroke-width="0.04"/>
<rect x="32.8558" y="222.509" width="32.3634" height="32.3634" stroke="white" stroke-opacity="0" stroke-width="0.1"/>
<rect x="65.5216" y="222.509" width="32.3634" height="32.3634" stroke="white" stroke-opacity="0.04" stroke-width="0.1"/>
<rect x="98.1874" y="222.509" width="32.3634" height="32.3634" stroke="white" stroke-opacity="0.04" stroke-width="0.1"/>
<rect x="130.853" y="222.509" width="32.3634" height="32.3634" stroke="white" stroke-opacity="0.04" stroke-width="0.1"/>
<rect x="163.519" y="222.509" width="32.3634" height="32.3634" stroke="white" stroke-opacity="0.04" stroke-width="0.1"/>
<rect x="196.185" y="222.509" width="32.3634" height="32.3634" stroke="white" stroke-opacity="0.04" stroke-width="0.1"/>
<rect x="228.851" y="222.509" width="32.3634" height="32.3634" stroke="white" stroke-opacity="0.04" stroke-width="0.1"/>
<rect x="261.517" y="222.509" width="32.3634" height="32.3634" stroke="white" stroke-opacity="0.04" stroke-width="0.1"/>
<rect x="294.182" y="222.509" width="32.3634" height="32.3634" stroke="white" stroke-opacity="0" stroke-width="0.1"/>
<rect x="326.848" y="222.509" width="32.3634" height="32.3634" stroke="white" stroke-opacity="0" stroke-width="0.1"/>
</svg>
