<svg width="128" height="128" viewBox="0 0 128 128" fill="none" xmlns="http://www.w3.org/2000/svg">
<g id="info" clip-path="url(#clip0_265_2824)">
<path id="Vector" d="M64 128C76.658 128 89.0318 124.246 99.5565 117.214C110.081 110.182 118.284 100.186 123.128 88.4918C127.972 76.7973 129.24 63.929 126.77 51.5143C124.301 39.0995 118.205 27.6958 109.255 18.7452C100.304 9.79463 88.9006 3.69922 76.4858 1.22977C64.071 -1.23968 51.2027 0.0277303 39.5083 4.87174C27.8138 9.71575 17.8184 17.9188 10.7859 28.4435C3.75353 38.9683 0 51.342 0 64C0.0183524 80.9683 6.76708 97.2363 18.7654 109.235C30.7638 121.233 47.0318 127.982 64 128ZM64 26.6667C65.5823 26.6667 67.129 27.1359 68.4446 28.0149C69.7602 28.894 70.7855 30.1434 71.391 31.6052C71.9965 33.067 72.155 34.6756 71.8463 36.2274C71.5376 37.7793 70.7757 39.2047 69.6569 40.3236C68.538 41.4424 67.1126 42.2043 65.5607 42.513C64.0089 42.8217 62.4003 42.6632 60.9385 42.0577C59.4767 41.4522 58.2273 40.4269 57.3482 39.1113C56.4692 37.7957 56 36.2489 56 34.6667C56 32.545 56.8429 30.5101 58.3432 29.0098C59.8434 27.5096 61.8783 26.6667 64 26.6667ZM58.6667 53.3334H64C66.829 53.3334 69.5421 54.4572 71.5425 56.4576C73.5429 58.458 74.6667 61.1711 74.6667 64V96C74.6667 97.4145 74.1048 98.7711 73.1046 99.7713C72.1044 100.771 70.7478 101.333 69.3333 101.333C67.9189 101.333 66.5623 100.771 65.5621 99.7713C64.5619 98.7711 64 97.4145 64 96V64H58.6667C57.2522 64 55.8956 63.4381 54.8954 62.4379C53.8952 61.4377 53.3333 60.0812 53.3333 58.6667C53.3333 57.2522 53.8952 55.8957 54.8954 54.8955C55.8956 53.8953 57.2522 53.3334 58.6667 53.3334Z" fill="#DCC23C"/>
</g>
<defs>
<clipPath id="clip0_265_2824">
<rect width="128" height="128" fill="white"/>
</clipPath>
</defs>
</svg>
