<svg width="54" height="54" viewBox="0 0 54 54" fill="none" xmlns="http://www.w3.org/2000/svg">
<g id="instagram 1" clip-path="url(#clip0_155_312)">
<path id="Vector" d="M3.37496 3.67426C-0.86854 8.08201 -3.99649e-05 12.7643 -3.99649e-05 26.9888C-3.99649e-05 38.8013 -2.06104 50.643 8.72546 53.4308C12.0937 54.297 41.9377 54.297 45.3015 53.4263C49.7925 52.2675 53.4465 48.6248 53.946 42.273C54.0157 41.3865 54.0157 12.6068 53.9437 11.7023C53.4127 4.93651 49.248 1.03726 43.7602 0.247513C42.5025 0.0652629 42.2505 0.0112628 35.7975 1.28374e-05C12.9082 0.0112628 7.89071 -1.00799 3.37496 3.67426Z" fill="url(#paint0_linear_155_312)"/>
<path id="Vector_2" d="M26.9954 7.06276C18.8257 7.06276 11.0677 6.33601 8.10445 13.941C6.88045 17.082 7.0582 21.1613 7.0582 27.0023C7.0582 32.1278 6.89395 36.945 8.10445 40.0613C11.0609 47.6708 18.8819 46.9418 26.9909 46.9418C34.8142 46.9418 42.8805 47.7563 45.8797 40.0613C47.106 36.8888 46.926 32.8703 46.926 27.0023C46.926 19.2128 47.3557 14.184 43.5779 10.4085C39.7529 6.58351 34.5802 7.06276 26.9864 7.06276H26.9954ZM25.2089 10.656C42.2505 10.629 44.4194 8.73451 43.2224 35.0528C42.7972 44.361 35.7097 43.3395 26.9977 43.3395C11.1127 43.3395 10.6559 42.885 10.6559 26.9933C10.6559 10.917 11.9159 10.665 25.2089 10.6515V10.656ZM37.6379 13.9658C36.3172 13.9658 35.2462 15.0368 35.2462 16.3575C35.2462 17.6783 36.3172 18.7493 37.6379 18.7493C38.9587 18.7493 40.0297 17.6783 40.0297 16.3575C40.0297 15.0368 38.9587 13.9658 37.6379 13.9658ZM26.9954 16.7625C21.3412 16.7625 16.7579 21.348 16.7579 27.0023C16.7579 32.6565 21.3412 37.2398 26.9954 37.2398C32.6497 37.2398 37.2307 32.6565 37.2307 27.0023C37.2307 21.348 32.6497 16.7625 26.9954 16.7625ZM26.9954 20.3558C35.7817 20.3558 35.7929 33.6488 26.9954 33.6488C18.2114 33.6488 18.1979 20.3558 26.9954 20.3558Z" fill="white"/>
</g>
<defs>
<linearGradient id="paint0_linear_155_312" x1="3.47851" y1="50.551" x2="53.6658" y2="7.11446" gradientUnits="userSpaceOnUse">
<stop stop-color="#FFDD55"/>
<stop offset="0.5" stop-color="#FF543E"/>
<stop offset="1" stop-color="#C837AB"/>
</linearGradient>
<clipPath id="clip0_155_312">
<rect width="54" height="54" fill="white"/>
</clipPath>
</defs>
</svg>
