<svg width="84" height="84" viewBox="0 0 84 84" fill="none" xmlns="http://www.w3.org/2000/svg">
<g id="customer 1">
<g id="Group">
<g id="Group_2">
<g id="Group_3">
<g id="Group_4">
<path id="Vector" d="M63.8872 55.0561L49.875 51.1646H42H34.125L20.1128 55.0574C14.4309 56.6351 10.5 61.8076 10.5 67.7034V81.3744H42H73.5V67.7034C73.5 61.8076 69.5691 56.6351 63.8872 55.0561Z" fill="#80D6FB"/>
</g>
</g>
<g id="Group_5">
<path id="Vector_2" d="M21 73.5H23.625V81.375H21V73.5Z" fill="#46BEE8"/>
</g>
<g id="Group_6">
<path id="Vector_3" d="M49.8749 51.1653H41.9999H34.1249L31.5353 51.8845C31.8963 57.3485 36.4454 61.6876 41.9999 61.6876C47.5544 61.6876 52.1035 57.3485 52.4644 51.8845L49.8749 51.1653Z" fill="#46BEE8"/>
</g>
<g id="Group_7">
<path id="Vector_4" d="M49.875 41.9778H34.125V51.1653L34.1263 51.1666C34.1263 51.1732 34.125 51.1797 34.125 51.1876C34.125 55.5372 37.6504 59.0626 42 59.0626C46.3496 59.0626 49.875 55.5372 49.875 51.1876C49.875 51.1797 49.8737 51.1732 49.8737 51.1653L49.875 41.9778Z" fill="#FCB98B"/>
</g>
<g id="Group_8">
<path id="Vector_5" d="M57.75 18.3528V31.5001C57.75 40.198 50.6979 47.2501 42 47.2501C33.3021 47.2501 26.25 40.198 26.25 31.5001V18.3528H57.75Z" fill="#FFD3B3"/>
</g>
<g id="Group_9">
<path id="Vector_6" d="M57.75 22.3125H58.6596C60.2569 22.3125 61.4841 23.7274 61.2583 25.3103L60.6979 29.2254C60.5128 30.5183 59.4051 31.4777 58.0991 31.4777H57.75V22.3125Z" fill="#FFD3B3"/>
</g>
<g id="Group_10">
<path id="Vector_7" d="M26.2515 22.3125H25.342C23.7447 22.3125 22.5175 23.7274 22.7432 25.3103L23.3037 29.2254C23.4887 30.5183 24.5965 31.4777 25.9024 31.4777H26.2515V22.3125Z" fill="#FFD3B3"/>
</g>
<g id="Group_11">
<path id="Vector_8" d="M57.75 31.4777L55.125 20.9777H42H28.875L26.25 31.4777V15.75C26.25 8.50106 32.1261 2.625 39.375 2.625H45.9375C48.8368 2.625 51.1875 4.97569 51.1875 7.875C54.8113 7.875 57.75 10.8137 57.75 14.4375V31.4777Z" fill="#6E83B7"/>
</g>
</g>
<g id="Group_12">
<path id="Vector_9" d="M69.5625 13.125H66.9375V3.9375H57.75V1.3125H69.5625V13.125Z" fill="#FFB0AA"/>
</g>
<g id="Group_13">
<path id="Vector_10" d="M17.0625 13.125H14.4375V1.3125H26.25V3.9375H17.0625V13.125Z" fill="#FFB0AA"/>
</g>
<g id="Group_14">
<path id="Vector_11" d="M69.5625 51.1875H57.75V48.5625H66.9375V39.375H69.5625V51.1875Z" fill="#FFB0AA"/>
</g>
<g id="Group_15">
<path id="Vector_12" d="M26.25 51.1875H14.4375V39.375H17.0625V48.5625H26.25V51.1875Z" fill="#FFB0AA"/>
</g>
<g id="Group_16">
<path id="Vector_13" d="M14.4375 24.9375H69.5625V27.5625H14.4375V24.9375Z" fill="#FFB0AA"/>
</g>
<g id="Group_17">
<g id="Group_18">
<path id="Vector_14" d="M68.25 81.375C75.4987 81.375 81.375 75.4987 81.375 68.25C81.375 61.0013 75.4987 55.125 68.25 55.125C61.0013 55.125 55.125 61.0013 55.125 68.25C55.125 75.4987 61.0013 81.375 68.25 81.375Z" fill="#98CA69"/>
</g>
<g id="Group_19">
<path id="Vector_15" d="M68.25 78.75C74.049 78.75 78.75 74.049 78.75 68.25C78.75 62.451 74.049 57.75 68.25 57.75C62.451 57.75 57.75 62.451 57.75 68.25C57.75 74.049 62.451 78.75 68.25 78.75Z" fill="#EDEFF1"/>
</g>
<g id="Group_20">
<path id="Vector_16" d="M66.9361 73.3873L62.0707 68.5219L63.9266 66.666L66.9361 69.6756L73.5551 63.0566L75.4109 64.9125L66.9361 73.3873Z" fill="#98CA69"/>
</g>
</g>
</g>
</g>
</svg>
