<svg width="85" height="84" viewBox="0 0 85 84" fill="none" xmlns="http://www.w3.org/2000/svg">
<g id="safe-mail">
<path id="Vector" d="M75.7234 37.075L43.4736 13.0284C42.7468 12.4853 41.7493 12.4853 41.0225 13.0284L8.77274 37.075C8.2543 37.4622 7.94751 38.0709 7.94751 38.7189C7.94751 39.367 8.25266 39.9756 8.77274 40.3628L41.0225 64.4095C41.3867 64.6802 41.8166 64.8164 42.2481 64.8164C42.6795 64.8164 43.111 64.6802 43.4736 64.4095L75.7234 40.3628C76.2418 39.9756 76.5486 39.367 76.5486 38.7189C76.5486 38.0709 76.2434 37.4622 75.7234 37.075Z" fill="url(#paint0_linear_265_3538)"/>
<path id="Vector_2" d="M60.0539 17.6367H24.4425C20.5916 17.6367 17.4699 20.7585 17.4699 24.6094V63.8892C17.4699 67.7401 20.5916 70.8619 24.4425 70.8619H60.0539C63.9048 70.8619 67.0266 67.7401 67.0266 63.8892V24.6094C67.0266 20.7585 63.9048 17.6367 60.0539 17.6367Z" fill="url(#paint1_linear_265_3538)"/>
<path id="Vector_3" d="M75.4181 36.8863C74.7241 36.5384 73.894 36.6106 73.2722 37.0749L53.8636 51.5452L47.1797 44.8613C44.4612 42.1428 40.0381 42.1428 37.3195 44.8613L30.6356 51.5452L11.227 37.0749C10.6052 36.6106 9.77509 36.5384 9.0811 36.8863C8.38712 37.2341 7.95071 37.9428 7.95071 38.7188V70.8751C7.95071 71.9234 8.17876 72.9308 8.62501 73.8692C9.77509 76.2859 12.2475 77.8477 14.9234 77.8477H69.5759C72.2517 77.8477 74.7242 76.2859 75.8726 73.8709C76.3205 72.9308 76.5485 71.9234 76.5485 70.8751V38.7188C76.5485 37.9428 76.1105 37.2341 75.4181 36.8863Z" fill="url(#paint2_linear_265_3538)"/>
<g id="Group">
<path id="Vector_4" d="M53.235 8.99055L43.3059 6.29336C42.6136 6.10469 41.8819 6.10469 41.1895 6.29336L31.2605 8.99055C29.5083 9.46633 28.2827 11.0676 28.2827 12.8837V24.5519C28.2827 27.8938 29.6543 31.1209 32.0512 33.4112L32.084 33.4424C34.6401 35.8722 37.7705 37.672 41.1403 38.6448C41.5029 38.7498 41.8753 38.8023 42.2477 38.8023C42.6201 38.8023 42.9926 38.7498 43.3551 38.6448C46.7233 37.672 49.8553 35.8738 52.418 33.4359L52.4508 33.4047C54.8412 31.1193 56.2127 27.8922 56.2127 24.5519V12.8854C56.2127 11.0692 54.9888 9.46797 53.235 8.99219V8.99055Z" fill="url(#paint3_linear_265_3538)"/>
<path id="Vector_5" d="M40.8976 26.5337C40.3726 26.5337 39.8476 26.3336 39.4473 25.9333L36.2596 22.7455C35.459 21.9449 35.459 20.6455 36.2596 19.8449C37.0602 19.0443 38.3596 19.0443 39.1602 19.8449L40.8976 21.5823L45.7982 16.6818C46.5988 15.8811 47.8982 15.8811 48.6988 16.6818C49.4994 17.4824 49.4994 18.7818 48.6988 19.5824L42.3479 25.9333C41.9476 26.3336 41.4226 26.5337 40.8976 26.5337Z" fill="url(#paint4_linear_265_3538)"/>
</g>
</g>
<defs>
<linearGradient id="paint0_linear_265_3538" x1="42.2481" y1="43.5949" x2="42.2481" y2="30.3583" gradientUnits="userSpaceOnUse">
<stop stop-color="#FF9500"/>
<stop offset="1" stop-color="#FFCC1E"/>
</linearGradient>
<linearGradient id="paint1_linear_265_3538" x1="42.2482" y1="17.9878" x2="42.2482" y2="50.6231" gradientUnits="userSpaceOnUse">
<stop stop-color="#FFDBB8"/>
<stop offset="1" stop-color="#FFEBD9"/>
</linearGradient>
<linearGradient id="paint2_linear_265_3538" x1="42.248" y1="77.8477" x2="42.248" y2="36.6681" gradientUnits="userSpaceOnUse">
<stop stop-color="#FFBD00"/>
<stop offset="1" stop-color="#FFF065"/>
</linearGradient>
<linearGradient id="paint3_linear_265_3538" x1="42.2477" y1="38.804" x2="42.2477" y2="6.15226" gradientUnits="userSpaceOnUse">
<stop stop-color="#4CA342"/>
<stop offset="1" stop-color="#54CC46"/>
</linearGradient>
<linearGradient id="paint4_linear_265_3538" x1="42.4792" y1="26.5337" x2="42.4792" y2="16.0813" gradientUnits="userSpaceOnUse">
<stop stop-color="#62D154"/>
<stop offset="1" stop-color="#9DED93"/>
</linearGradient>
</defs>
</svg>
