<svg width="18" height="18" viewBox="0 0 18 18" fill="none" xmlns="http://www.w3.org/2000/svg">
<g id="menu-dots-vertical (1) 1">
<g id="Group">
<path id="Vector" d="M8.99999 3.74998C10.0355 3.74998 10.875 2.91052 10.875 1.87499C10.875 0.839461 10.0355 0 8.99999 0C7.96446 0 7.125 0.839461 7.125 1.87499C7.125 2.91052 7.96446 3.74998 8.99999 3.74998Z" fill="#737994"/>
<path id="Vector_2" d="M8.99999 10.875C10.0355 10.875 10.875 10.0355 10.875 9C10.875 7.96448 10.0355 7.12502 8.99999 7.12502C7.96446 7.12502 7.125 7.96448 7.125 9C7.125 10.0355 7.96446 10.875 8.99999 10.875Z" fill="#737994"/>
<path id="Vector_3" d="M8.99999 18C10.0355 18 10.875 17.1605 10.875 16.125C10.875 15.0895 10.0355 14.25 8.99999 14.25C7.96446 14.25 7.125 15.0895 7.125 16.125C7.125 17.1605 7.96446 18 8.99999 18Z" fill="#737994"/>
</g>
</g>
</svg>
