<svg width="14" height="14" viewBox="0 0 14 14" fill="none" xmlns="http://www.w3.org/2000/svg">
<g id="meta (1) 1">
<g id="Group">
<path id="Vector" d="M10.0477 2.34814C8.89971 2.34814 8.00231 3.21275 7.18998 4.3111C6.07368 2.88974 5.14011 2.34814 4.02289 2.34814C1.74519 2.34814 0 5.3124 0 8.44987C0 10.4132 0.94984 11.6515 2.54078 11.6515C3.68586 11.6515 4.50939 11.1117 5.97341 8.55252C5.97341 8.55252 6.58369 7.4748 7.00353 6.73241C7.15064 6.96995 7.30524 7.2255 7.46837 7.50028L8.15489 8.65517C9.49222 10.8931 10.2373 11.6515 11.5875 11.6515C13.1374 11.6515 14 10.3963 14 8.3921C14 5.10707 12.2155 2.34814 10.0477 2.34814ZM4.85702 7.85961C3.67002 9.72029 3.2594 10.1373 2.59853 10.1373C1.91841 10.1373 1.51421 9.54026 1.51421 8.47555C1.51421 6.19782 2.64988 3.86876 4.00367 3.86876C4.73678 3.86876 5.34945 4.29215 6.28786 5.6356C5.39678 7.00238 4.85702 7.85961 4.85702 7.85961ZM9.33685 7.62535L8.51602 6.25639C8.29388 5.89512 8.08101 5.56314 7.8756 5.25878C8.61541 4.11693 9.22564 3.54796 9.95143 3.54796C11.4592 3.54796 12.6655 5.76795 12.6655 8.4948C12.6655 9.53422 12.325 10.1373 11.6196 10.1373C10.9435 10.1373 10.6206 9.69082 9.33685 7.62535Z" fill="#192EED"/>
</g>
</g>
</svg>
