<svg width="28" height="28" viewBox="0 0 28 28" fill="none" xmlns="http://www.w3.org/2000/svg">
<g id="angle-small-right 1">
<path id="Vector" d="M17.9667 11.5268L12.6117 6.17178C12.3931 5.95448 12.0974 5.83252 11.7892 5.83252C11.481 5.83252 11.1853 5.95448 10.9667 6.17178C10.8573 6.28023 10.7705 6.40927 10.7113 6.55144C10.6521 6.69361 10.6216 6.8461 10.6216 7.00011C10.6216 7.15412 10.6521 7.30661 10.7113 7.44878C10.7705 7.59095 10.8573 7.71999 10.9667 7.82844L16.3333 13.1718C16.4427 13.2802 16.5295 13.4093 16.5887 13.5514C16.648 13.6936 16.6784 13.8461 16.6784 14.0001C16.6784 14.1541 16.648 14.3066 16.5887 14.4488C16.5295 14.591 16.4427 14.72 16.3333 14.8284L10.9667 20.1718C10.747 20.3899 10.623 20.6864 10.6219 20.996C10.6208 21.3056 10.7427 21.6029 10.9608 21.8226C11.179 22.0423 11.4755 22.1663 11.7851 22.1674C12.0946 22.1685 12.392 22.0466 12.6117 21.8284L17.9667 16.4734C18.6221 15.8172 18.9903 14.9276 18.9903 14.0001C18.9903 13.0726 18.6221 12.183 17.9667 11.5268Z" fill="#D1D1D5"/>
</g>
</svg>
