<svg width="20" height="20" viewBox="0 0 20 20" fill="none" xmlns="http://www.w3.org/2000/svg">
<g id="play (3) 1">
<path id="Vector" d="M17.0783 6.64L9.12833 0.806666C8.50741 0.351987 7.77269 0.0781615 7.00564 0.0155523C6.23859 -0.0470569 5.46919 0.103997 4.78275 0.451964C4.0963 0.799931 3.51965 1.33121 3.11672 1.9869C2.71378 2.64259 2.50032 3.39707 2.5 4.16667V15.8333C2.50014 16.6033 2.71361 17.3581 3.11673 18.0141C3.51985 18.6701 4.09684 19.2016 4.78368 19.5495C5.47052 19.8975 6.24034 20.0483 7.00771 19.9853C7.77507 19.9223 8.50997 19.6478 9.13083 19.1925L17.0808 13.3592C17.6086 12.9722 18.0377 12.4663 18.3335 11.8825C18.6293 11.2988 18.7835 10.6536 18.7835 9.99917C18.7835 9.34475 18.6293 8.69953 18.3335 8.11578C18.0377 7.53203 17.6086 7.02617 17.0808 6.63917L17.0783 6.64ZM16.0917 12.015L8.14167 17.8483C7.76918 18.1205 7.32864 18.2843 6.86881 18.3216C6.40898 18.3589 5.9478 18.2683 5.53631 18.0597C5.12482 17.8511 4.77907 17.5327 4.53734 17.1398C4.2956 16.7468 4.16731 16.2947 4.16667 15.8333V4.16667C4.16204 3.70446 4.28791 3.25032 4.52981 2.85644C4.77172 2.46255 5.11983 2.14491 5.53417 1.94C5.88658 1.76074 6.27629 1.6671 6.67167 1.66667C7.20158 1.66869 7.71685 1.84074 8.14167 2.1575L16.0917 7.99083C16.4079 8.22308 16.6651 8.5265 16.8423 8.87656C17.0195 9.22661 17.1119 9.61347 17.1119 10.0058C17.1119 10.3982 17.0195 10.7851 16.8423 11.1351C16.6651 11.4852 16.4079 11.7886 16.0917 12.0208V12.015Z" fill="#D1D1D5"/>
</g>
</svg>
