<svg width="28" height="28" viewBox="0 0 28 28" fill="none" xmlns="http://www.w3.org/2000/svg">
<g id="angle-small-right 1">
<path id="Vector" d="M10.0333 11.5268L15.3883 6.17178C15.6069 5.95448 15.9026 5.83252 16.2108 5.83252C16.519 5.83252 16.8147 5.95448 17.0333 6.17178C17.1427 6.28023 17.2295 6.40927 17.2887 6.55144C17.3479 6.69361 17.3784 6.8461 17.3784 7.00011C17.3784 7.15412 17.3479 7.30661 17.2887 7.44878C17.2295 7.59095 17.1427 7.71999 17.0333 7.82844L11.6667 13.1718C11.5573 13.2802 11.4705 13.4093 11.4113 13.5514C11.352 13.6936 11.3216 13.8461 11.3216 14.0001C11.3216 14.1541 11.352 14.3066 11.4113 14.4488C11.4705 14.591 11.5573 14.72 11.6667 14.8284L17.0333 20.1718C17.253 20.3899 17.377 20.6864 17.3781 20.996C17.3792 21.3056 17.2573 21.6029 17.0392 21.8226C16.821 22.0423 16.5245 22.1663 16.2149 22.1674C15.9054 22.1685 15.608 22.0466 15.3883 21.8284L10.0333 16.4734C9.37788 15.8172 9.00973 14.9276 9.00973 14.0001C9.00973 13.0726 9.37788 12.183 10.0333 11.5268Z" fill="#D1D1D5"/>
</g>
</svg>
