<svg width="188" height="188" viewBox="0 0 188 188" fill="none" xmlns="http://www.w3.org/2000/svg">
<g id="qr-code 1" clip-path="url(#clip0_265_4127)">
<g id="Group">
<path id="Vector" d="M132.706 0V55.2941H188V0H132.706ZM176.941 44.2353H143.765V11.0588H176.941V44.2353Z" fill="white"/>
<path id="Vector_2" d="M154.824 22.1177H165.883V33.1765H154.824V22.1177Z" fill="white"/>
<path id="Vector_3" d="M132.706 188H188V132.706H132.706V188ZM143.765 143.765H176.941V176.941H143.765V143.765Z" fill="white"/>
<path id="Vector_4" d="M154.824 154.824H165.883V165.883H154.824V154.824Z" fill="white"/>
<path id="Vector_5" d="M0 188H55.2941V132.706H0V188ZM11.0588 143.765H44.2353V176.941H11.0588V143.765Z" fill="white"/>
<path id="Vector_6" d="M22.1173 154.824H33.1761V165.883H22.1173V154.824Z" fill="white"/>
<path id="Vector_7" d="M66.3527 176.941H93.9997V188H66.3527V176.941Z" fill="white"/>
<path id="Vector_8" d="M66.3527 154.824H82.9409V165.883H66.3527V154.824Z" fill="white"/>
<path id="Vector_9" d="M33.1766 110.588H44.2355V121.647H33.1766V110.588Z" fill="white"/>
<path id="Vector_10" d="M22.1176 110.588H11.0588V88.4707H0V121.647H22.1176V110.588Z" fill="white"/>
<path id="Vector_11" d="M176.941 110.588H165.882V121.647H188V88.4707H176.941V110.588Z" fill="white"/>
<path id="Vector_12" d="M132.706 110.588H154.824V121.647H132.706V110.588Z" fill="white"/>
<path id="Vector_13" d="M94 110.588H121.647V121.647H94V110.588Z" fill="white"/>
<path id="Vector_14" d="M105.059 176.941H121.647V188H105.059V176.941Z" fill="white"/>
<path id="Vector_15" d="M110.588 154.824H94V165.883H121.647V132.706H110.588V154.824Z" fill="white"/>
<path id="Vector_16" d="M66.3531 143.765H94.0002V132.706H77.412V110.588H55.2947V121.647H66.3531V143.765Z" fill="white"/>
<path id="Vector_17" d="M105.059 22.1177H121.647V33.1765H105.059V22.1177Z" fill="white"/>
<path id="Vector_18" d="M132.706 66.353H143.765V77.4119H132.706V66.353Z" fill="white"/>
<path id="Vector_19" d="M132.706 88.4707H143.765V99.5295H132.706V88.4707Z" fill="white"/>
<path id="Vector_20" d="M154.824 99.5295H165.883V77.4119H188V66.353H154.824V99.5295Z" fill="white"/>
<path id="Vector_21" d="M94 55.2942H110.588V99.5295H121.647V44.2354H94V55.2942Z" fill="white"/>
<path id="Vector_22" d="M44.2354 99.5293H94.0001V88.4704H55.2942V77.4116H44.2354V99.5293Z" fill="white"/>
<path id="Vector_23" d="M22.1176 99.5295H33.1765V66.353H0V77.4119H22.1176V99.5295Z" fill="white"/>
<path id="Vector_24" d="M44.2354 44.2354H55.2942V66.353H44.2354V44.2354Z" fill="white"/>
<path id="Vector_25" d="M66.3527 66.353H93.9997V77.4119H66.3527V66.353Z" fill="white"/>
<path id="Vector_26" d="M77.4115 33.1765H93.9997V22.1177H66.3527V55.2941H77.4115V33.1765Z" fill="white"/>
<path id="Vector_27" d="M94 0H121.647V11.0588H94V0Z" fill="white"/>
<path id="Vector_28" d="M11.0588 11.0588H33.1765V0H0V33.1765H11.0588V11.0588Z" fill="white"/>
<path id="Vector_29" d="M66.3527 0H82.9409V11.0588H66.3527V0Z" fill="white"/>
<path id="Vector_30" d="M22.1173 33.1765H55.2938V0H44.235V22.1176H22.1173V33.1765Z" fill="white"/>
<path id="Vector_31" d="M0 44.2354H33.1765V55.2942H0V44.2354Z" fill="white"/>
</g>
</g>
<defs>
<clipPath id="clip0_265_4127">
<rect width="188" height="188" fill="white"/>
</clipPath>
</defs>
</svg>
