<svg width="18" height="18" viewBox="0 0 18 18" fill="none" xmlns="http://www.w3.org/2000/svg">
<g id="settings 1" clip-path="url(#clip0_155_102)">
<path id="Vector" d="M9 6C8.40666 6 7.82664 6.17595 7.33329 6.50559C6.83994 6.83524 6.45543 7.30377 6.22836 7.85195C6.0013 8.40013 5.94189 9.00333 6.05765 9.58527C6.1734 10.1672 6.45912 10.7018 6.87868 11.1213C7.29824 11.5409 7.83279 11.8266 8.41473 11.9424C8.99667 12.0581 9.59987 11.9987 10.1481 11.7716C10.6962 11.5446 11.1648 11.1601 11.4944 10.6667C11.8241 10.1734 12 9.59334 12 9C12 8.20435 11.6839 7.44129 11.1213 6.87868C10.5587 6.31607 9.79565 6 9 6ZM9 10.5C8.70333 10.5 8.41332 10.412 8.16665 10.2472C7.91997 10.0824 7.72771 9.84811 7.61418 9.57403C7.50065 9.29994 7.47095 8.99834 7.52882 8.70736C7.5867 8.41639 7.72956 8.14912 7.93934 7.93934C8.14912 7.72956 8.41639 7.5867 8.70737 7.52882C8.99834 7.47094 9.29994 7.50065 9.57403 7.61418C9.84812 7.72771 10.0824 7.91997 10.2472 8.16665C10.412 8.41332 10.5 8.70333 10.5 9C10.5 9.39783 10.342 9.77936 10.0607 10.0607C9.77936 10.342 9.39783 10.5 9 10.5Z" fill="#D0D1D3"/>
<path id="Vector_2" d="M15.9705 10.425L15.6375 10.233C15.7874 9.41733 15.7874 8.58117 15.6375 7.7655L15.9705 7.5735C16.2266 7.42576 16.451 7.22903 16.6311 6.99455C16.8111 6.76006 16.9432 6.4924 17.0198 6.20686C17.0964 5.92132 17.1161 5.62349 17.0776 5.33037C17.0391 5.03725 16.9432 4.75458 16.7955 4.4985C16.6477 4.24242 16.451 4.01795 16.2165 3.8379C15.982 3.65785 15.7144 3.52575 15.4288 3.44915C15.1433 3.37254 14.8455 3.35292 14.5523 3.39142C14.2592 3.42991 13.9766 3.52576 13.7205 3.6735L13.3867 3.86625C12.7564 3.32769 12.032 2.91019 11.25 2.63475V2.25C11.25 1.65326 11.0129 1.08097 10.591 0.65901C10.169 0.237053 9.59671 0 8.99997 0C8.40323 0 7.83094 0.237053 7.40898 0.65901C6.98702 1.08097 6.74997 1.65326 6.74997 2.25V2.63475C5.96801 2.91118 5.24386 3.3297 4.61397 3.86925L4.27872 3.675C3.76155 3.37663 3.14703 3.29593 2.57036 3.45065C1.99368 3.60536 1.50209 3.98283 1.20372 4.5C0.905353 5.01717 0.82465 5.63169 0.979368 6.20836C1.13409 6.78504 1.51155 7.27663 2.02872 7.575L2.36172 7.767C2.2118 8.58267 2.2118 9.41883 2.36172 10.2345L2.02872 10.4265C1.51155 10.7249 1.13409 11.2165 0.979368 11.7931C0.82465 12.3698 0.905353 12.9843 1.20372 13.5015C1.50209 14.0187 1.99368 14.3961 2.57036 14.5509C3.14703 14.7056 3.76155 14.6249 4.27872 14.3265L4.61247 14.1337C5.24304 14.6724 5.96771 15.0899 6.74997 15.3652V15.75C6.74997 16.3467 6.98702 16.919 7.40898 17.341C7.83094 17.7629 8.40323 18 8.99997 18C9.59671 18 10.169 17.7629 10.591 17.341C11.0129 16.919 11.25 16.3467 11.25 15.75V15.3652C12.0319 15.0888 12.7561 14.6703 13.386 14.1307L13.7212 14.3243C14.2384 14.6226 14.8529 14.7033 15.4296 14.5486C16.0063 14.3939 16.4979 14.0164 16.7962 13.4993C17.0946 12.9821 17.1753 12.3676 17.0206 11.7909C16.8659 11.2142 16.4884 10.7226 15.9712 10.4242L15.9705 10.425ZM14.0595 7.593C14.3135 8.5133 14.3135 9.4852 14.0595 10.4055C14.0151 10.5657 14.0252 10.7361 14.0882 10.8899C14.1512 11.0437 14.2635 11.1722 14.4075 11.2552L15.2205 11.7248C15.3928 11.8242 15.5186 11.9881 15.5702 12.1803C15.6217 12.3725 15.5948 12.5773 15.4953 12.7496C15.3959 12.922 15.232 13.0478 15.0398 13.0993C14.8476 13.1509 14.6428 13.124 14.4705 13.0245L13.656 12.5535C13.5119 12.4701 13.3441 12.4369 13.1792 12.4593C13.0142 12.4817 12.8613 12.5584 12.7447 12.6772C12.0772 13.3587 11.2362 13.845 10.3125 14.0835C10.1512 14.125 10.0084 14.2189 9.90642 14.3504C9.80444 14.482 9.74914 14.6438 9.74922 14.8102V15.75C9.74922 15.9489 9.6702 16.1397 9.52955 16.2803C9.3889 16.421 9.19813 16.5 8.99922 16.5C8.80031 16.5 8.60954 16.421 8.46889 16.2803C8.32824 16.1397 8.24922 15.9489 8.24922 15.75V14.811C8.2493 14.6445 8.194 14.4828 8.09202 14.3512C7.99005 14.2196 7.8472 14.1257 7.68597 14.0842C6.76223 13.8448 5.92147 13.3575 5.25447 12.675C5.13786 12.5561 4.98502 12.4795 4.82004 12.4571C4.65505 12.4347 4.4873 12.4678 4.34322 12.5513L3.53022 13.0215C3.44489 13.0715 3.35051 13.1042 3.25252 13.1176C3.15452 13.131 3.05484 13.1249 2.95921 13.0996C2.86359 13.0743 2.77391 13.0303 2.69534 12.9703C2.61677 12.9102 2.55085 12.8352 2.5014 12.7495C2.45194 12.6638 2.41992 12.5692 2.40717 12.4712C2.39442 12.3731 2.4012 12.2734 2.42711 12.178C2.45303 12.0825 2.49757 11.9931 2.55817 11.915C2.61877 11.8368 2.69424 11.7714 2.78022 11.7225L3.59322 11.253C3.73718 11.1699 3.84948 11.0414 3.91247 10.8876C3.97545 10.7338 3.98557 10.5634 3.94122 10.4032C3.68724 9.48295 3.68724 8.51105 3.94122 7.59075C3.98477 7.43091 3.97417 7.26115 3.91108 7.10797C3.84799 6.95479 3.73596 6.8268 3.59247 6.744L2.77947 6.2745C2.60711 6.17504 2.48132 6.01119 2.42978 5.81899C2.37823 5.62679 2.40514 5.42198 2.5046 5.24962C2.60405 5.07727 2.7679 4.95148 2.96011 4.89993C3.15231 4.84838 3.35711 4.87529 3.52947 4.97475L4.34397 5.44575C4.48766 5.52939 4.65506 5.56291 4.81987 5.54105C4.98468 5.51919 5.13755 5.4432 5.25447 5.325C5.92204 4.64351 6.76304 4.15727 7.68672 3.91875C7.84844 3.87717 7.99167 3.78281 8.0937 3.65063C8.19572 3.51844 8.25072 3.35598 8.24997 3.189V2.25C8.24997 2.05109 8.32899 1.86032 8.46964 1.71967C8.61029 1.57902 8.80106 1.5 8.99997 1.5C9.19888 1.5 9.38965 1.57902 9.5303 1.71967C9.67095 1.86032 9.74997 2.05109 9.74997 2.25V3.189C9.74989 3.35547 9.80519 3.51723 9.90717 3.64881C10.0091 3.78039 10.152 3.8743 10.3132 3.91575C11.2372 4.15511 12.0783 4.64241 12.7455 5.325C12.8621 5.44385 13.0149 5.52052 13.1799 5.54292C13.3449 5.56533 13.5126 5.5322 13.6567 5.44875L14.4697 4.9785C14.555 4.92848 14.6494 4.89583 14.7474 4.88243C14.8454 4.86903 14.9451 4.87514 15.0407 4.90043C15.1364 4.92571 15.226 4.96965 15.3046 5.02974C15.3832 5.08982 15.4491 5.16485 15.4985 5.2505C15.548 5.33616 15.58 5.43076 15.5928 5.52884C15.6055 5.62693 15.5987 5.72656 15.5728 5.82202C15.5469 5.91747 15.5024 6.00686 15.4418 6.08503C15.3812 6.1632 15.3057 6.22861 15.2197 6.2775L14.4067 6.747C14.2635 6.83003 14.1518 6.95811 14.089 7.11127C14.0262 7.26443 14.0158 7.43407 14.0595 7.59375V7.593Z" fill="#D0D1D3"/>
</g>
<defs>
<clipPath id="clip0_155_102">
<rect width="18" height="18" fill="white"/>
</clipPath>
</defs>
</svg>
