<svg width="54" height="54" viewBox="0 0 54 54" fill="none" xmlns="http://www.w3.org/2000/svg">
<g id="spotify 1" clip-path="url(#clip0_155_303)">
<g id="Group">
<g id="Group_2">
<g id="Group_3">
<path id="Vector" d="M27 0C12.0893 0 0 12.0893 0 27C0 41.913 12.0893 54 27 54C41.913 54 54 41.913 54 27C54 12.0893 41.913 0 27 0ZM39.3818 38.943C38.8958 39.7395 37.8608 39.987 37.0688 39.5033C30.7283 35.6287 22.7475 34.7535 13.3492 36.9C12.4425 37.107 11.5403 36.54 11.3333 35.6355C11.1263 34.731 11.691 33.8265 12.6 33.6217C22.8848 31.2705 31.707 32.283 38.8237 36.6323C39.618 37.1138 39.8678 38.151 39.3818 38.943ZM42.687 31.5923C42.0773 32.5823 40.7812 32.8927 39.7912 32.2853C32.535 27.8258 21.4718 26.532 12.8858 29.1398C11.7743 29.475 10.5975 28.8472 10.26 27.7357C9.92475 26.622 10.5525 25.4497 11.664 25.11C21.4695 22.1332 33.66 23.5755 41.994 28.6965C42.984 29.3062 43.2945 30.6023 42.687 31.5923ZM42.9705 23.9355C34.2675 18.7673 19.9125 18.2925 11.6033 20.8148C10.269 21.2198 8.85825 20.466 8.45325 19.1318C8.04825 17.7975 8.802 16.3868 10.1363 15.9818C19.674 13.086 35.5275 13.6463 45.5467 19.593C46.746 20.3062 47.1398 21.8542 46.4287 23.0535C45.72 24.2528 44.1675 24.6487 42.9705 23.9355Z" fill="#1DD35E"/>
</g>
</g>
</g>
</g>
<defs>
<clipPath id="clip0_155_303">
<rect width="54" height="54" fill="white"/>
</clipPath>
</defs>
</svg>
