<svg width="25" height="24" viewBox="0 0 25 24" fill="none" xmlns="http://www.w3.org/2000/svg">
<g id="inbox-in" clip-path="url(#clip0_195_1075)">
<path id="Vector" d="M21.5 12H18.5C17.397 12 16.5 12.897 16.5 14C16.5 15.103 15.603 16 14.5 16H10.5C9.397 16 8.5 15.103 8.5 14C8.5 12.897 7.603 12 6.5 12H3.5C1.846 12 0.5 13.346 0.5 15V19C0.5 21.757 2.743 24 5.5 24H19.5C22.257 24 24.5 21.757 24.5 19V15C24.5 13.346 23.154 12 21.5 12ZM22.5 19C22.5 20.654 21.154 22 19.5 22H5.5C3.846 22 2.5 20.654 2.5 19V15C2.5 14.448 2.948 14 3.5 14L6.5 13.998V14C6.5 16.206 8.294 18 10.5 18H14.5C16.706 18 18.5 16.206 18.5 14H21.5C22.052 14 22.5 14.448 22.5 15V19ZM7.793 7.121C7.402 6.73 7.402 6.098 7.793 5.707C8.184 5.316 8.816 5.316 9.207 5.707L11.5 8V1C11.5 0.447 11.947 0 12.5 0C13.053 0 13.5 0.447 13.5 1V8L15.793 5.707C16.184 5.316 16.816 5.316 17.207 5.707C17.598 6.098 17.598 6.73 17.207 7.121L13.914 10.414C13.527 10.801 13.018 10.996 12.509 10.998L12.5 11L12.491 10.998C11.982 10.996 11.473 10.801 11.086 10.414L7.793 7.121Z" fill="white"/>
</g>
<defs>
<clipPath id="clip0_195_1075">
<rect width="24" height="24" fill="white" transform="translate(0.5)"/>
</clipPath>
</defs>
</svg>
