<svg width="64" height="64" viewBox="0 0 64 64" fill="none" xmlns="http://www.w3.org/2000/svg">
<g id="folder-upload (1) 1">
<path id="Vector" d="M52 8.00033H33.2587C32.6427 8.00033 32.0213 7.85366 31.4693 7.57899L23.0533 3.37099C22.1333 2.90966 21.1013 2.66699 20.072 2.66699H11.9973C5.384 2.66699 0 8.05099 0 14.667V49.3337C0 55.9497 5.384 61.3337 12 61.3337H22.6667C23.4027 61.3337 24 60.7363 24 60.0003C24 59.2643 23.4027 58.667 22.6667 58.667H12C6.85333 58.667 2.66667 54.4803 2.66667 49.3337V21.3337H61.3333V49.3337C61.3333 54.4803 57.1467 58.667 52 58.667H41.3333C40.5973 58.667 40 59.2643 40 60.0003C40 60.7363 40.5973 61.3337 41.3333 61.3337H52C58.616 61.3337 64 55.9497 64 49.3337V20.0003C64 13.3843 58.616 8.00033 52 8.00033ZM2.66667 14.667C2.66667 9.52033 6.85333 5.33366 12 5.33366H20.0747C20.6907 5.33366 21.312 5.48033 21.864 5.75499L30.28 9.96299C31.2 10.4243 32.232 10.667 33.2613 10.667H52.0027C56.696 10.667 60.592 14.1497 61.24 18.667H2.66667V14.667ZM33.8213 35.4137C33.672 35.2643 33.5093 35.139 33.3333 35.035V60.003C33.3333 60.739 32.736 61.3363 32 61.3363C31.264 61.3363 30.6667 60.739 30.6667 60.003V35.0377C30.4907 35.1443 30.3227 35.2723 30.168 35.427L23.472 42.2697C22.9573 42.7977 22.1147 42.8057 21.5867 42.291C21.0613 41.7763 21.0507 40.931 21.5653 40.4057L28.272 33.5523C29.296 32.5283 30.6347 32.0137 31.9733 32.0057H32.0213C33.36 32.011 34.696 32.523 35.712 33.5417L42.4293 40.4057C42.944 40.931 42.9333 41.7763 42.408 42.291C42.1493 42.5443 41.8107 42.6723 41.4747 42.6723C41.128 42.6723 40.784 42.539 40.5227 42.2723L33.816 35.419L33.8213 35.4137Z" fill="white"/>
</g>
</svg>
